<mxfile host="app.diagrams.net" modified="2020-08-12T09:22:35.283Z" agent="5.0 (Windows NT 10.0; Win64; x64) AppleWebKit/537.36 (KHTML, like Gecko) Chrome/84.0.4147.105 Safari/537.36" etag="E_teg7PdCr9VIPntzjhr" version="13.6.2" type="github">
  <diagram id="sWzhiQGBl4Nx6AxIuvOY" name="Page-1">
    <mxGraphModel dx="1422" dy="839" grid="1" gridSize="10" guides="1" tooltips="1" connect="1" arrows="1" fold="1" page="1" pageScale="1" pageWidth="827" pageHeight="1169" math="0" shadow="0">
      <root>
        <mxCell id="0" />
        <mxCell id="1" parent="0" />
        <mxCell id="DiKaz3tjesYUGpwmwaU4-8" style="edgeStyle=orthogonalEdgeStyle;rounded=0;orthogonalLoop=1;jettySize=auto;html=1;entryX=0.5;entryY=0;entryDx=0;entryDy=0;fontSize=16;fontColor=#000000;" edge="1" parent="1" source="DiKaz3tjesYUGpwmwaU4-1" target="DiKaz3tjesYUGpwmwaU4-4">
          <mxGeometry relative="1" as="geometry" />
        </mxCell>
        <mxCell id="DiKaz3tjesYUGpwmwaU4-1" value="1010 0100" style="rounded=0;whiteSpace=wrap;html=1;fontSize=16;fillColor=#fff2cc;strokeColor=#d6b656;" vertex="1" parent="1">
          <mxGeometry x="360" y="120" width="120" height="40" as="geometry" />
        </mxCell>
        <mxCell id="DiKaz3tjesYUGpwmwaU4-2" value="-164右移两位运算（缩小4倍）" style="rounded=1;whiteSpace=wrap;html=1;fontStyle=1;fontSize=18;fillColor=#ffe6cc;strokeColor=#d79b00;" vertex="1" parent="1">
          <mxGeometry x="277" width="274" height="70" as="geometry" />
        </mxCell>
        <mxCell id="DiKaz3tjesYUGpwmwaU4-3" value="原数：164" style="text;html=1;strokeColor=none;fillColor=none;align=center;verticalAlign=middle;whiteSpace=wrap;rounded=0;fontSize=16;" vertex="1" parent="1">
          <mxGeometry x="520" y="130" width="110" height="20" as="geometry" />
        </mxCell>
        <mxCell id="DiKaz3tjesYUGpwmwaU4-9" style="edgeStyle=orthogonalEdgeStyle;rounded=0;orthogonalLoop=1;jettySize=auto;html=1;entryX=0.5;entryY=0;entryDx=0;entryDy=0;fontSize=16;fontColor=#000000;" edge="1" parent="1" source="DiKaz3tjesYUGpwmwaU4-4" target="DiKaz3tjesYUGpwmwaU4-6">
          <mxGeometry relative="1" as="geometry" />
        </mxCell>
        <mxCell id="DiKaz3tjesYUGpwmwaU4-4" value="0101 1011" style="rounded=0;whiteSpace=wrap;html=1;fontSize=16;fillColor=#f5f5f5;strokeColor=#666666;fontColor=#333333;" vertex="1" parent="1">
          <mxGeometry x="360" y="200" width="120" height="40" as="geometry" />
        </mxCell>
        <mxCell id="DiKaz3tjesYUGpwmwaU4-5" value="取反" style="text;html=1;strokeColor=none;fillColor=none;align=center;verticalAlign=middle;whiteSpace=wrap;rounded=0;fontSize=16;" vertex="1" parent="1">
          <mxGeometry x="300" y="170" width="110" height="20" as="geometry" />
        </mxCell>
        <mxCell id="DiKaz3tjesYUGpwmwaU4-16" style="edgeStyle=orthogonalEdgeStyle;rounded=0;orthogonalLoop=1;jettySize=auto;html=1;entryX=0.5;entryY=0;entryDx=0;entryDy=0;fontSize=16;fontColor=#000000;" edge="1" parent="1" source="DiKaz3tjesYUGpwmwaU4-6" target="DiKaz3tjesYUGpwmwaU4-11">
          <mxGeometry relative="1" as="geometry" />
        </mxCell>
        <mxCell id="DiKaz3tjesYUGpwmwaU4-6" value="0101 1100" style="rounded=0;whiteSpace=wrap;html=1;fontSize=16;fillColor=#f5f5f5;strokeColor=#666666;fontColor=#333333;" vertex="1" parent="1">
          <mxGeometry x="360" y="280" width="120" height="40" as="geometry" />
        </mxCell>
        <mxCell id="DiKaz3tjesYUGpwmwaU4-7" value="加1操作" style="text;html=1;strokeColor=none;fillColor=none;align=center;verticalAlign=middle;whiteSpace=wrap;rounded=0;fontSize=16;" vertex="1" parent="1">
          <mxGeometry x="300" y="250" width="110" height="20" as="geometry" />
        </mxCell>
        <mxCell id="DiKaz3tjesYUGpwmwaU4-10" value="负数：-164" style="text;html=1;strokeColor=none;fillColor=none;align=center;verticalAlign=middle;whiteSpace=wrap;rounded=0;fontSize=16;" vertex="1" parent="1">
          <mxGeometry x="520" y="290" width="110" height="20" as="geometry" />
        </mxCell>
        <mxCell id="DiKaz3tjesYUGpwmwaU4-22" style="edgeStyle=orthogonalEdgeStyle;rounded=0;orthogonalLoop=1;jettySize=auto;html=1;entryX=0.5;entryY=0;entryDx=0;entryDy=0;fontSize=16;fontColor=#000000;" edge="1" parent="1" source="DiKaz3tjesYUGpwmwaU4-11" target="DiKaz3tjesYUGpwmwaU4-17">
          <mxGeometry relative="1" as="geometry" />
        </mxCell>
        <mxCell id="DiKaz3tjesYUGpwmwaU4-11" value="1101 0111" style="rounded=0;whiteSpace=wrap;html=1;fontSize=16;fillColor=#dae8fc;strokeColor=#6c8ebf;" vertex="1" parent="1">
          <mxGeometry x="360" y="360" width="120" height="40" as="geometry" />
        </mxCell>
        <mxCell id="DiKaz3tjesYUGpwmwaU4-13" value="平移(缩小)操作" style="text;html=1;strokeColor=none;fillColor=none;align=center;verticalAlign=middle;whiteSpace=wrap;rounded=0;fontSize=16;" vertex="1" parent="1">
          <mxGeometry x="300" y="330" width="110" height="20" as="geometry" />
        </mxCell>
        <mxCell id="DiKaz3tjesYUGpwmwaU4-14" value="平移后：215" style="text;html=1;strokeColor=none;fillColor=none;align=center;verticalAlign=middle;whiteSpace=wrap;rounded=0;fontSize=16;" vertex="1" parent="1">
          <mxGeometry x="520" y="370" width="110" height="20" as="geometry" />
        </mxCell>
        <mxCell id="DiKaz3tjesYUGpwmwaU4-23" style="edgeStyle=orthogonalEdgeStyle;rounded=0;orthogonalLoop=1;jettySize=auto;html=1;entryX=0.5;entryY=0;entryDx=0;entryDy=0;fontSize=16;fontColor=#000000;" edge="1" parent="1" source="DiKaz3tjesYUGpwmwaU4-17" target="DiKaz3tjesYUGpwmwaU4-20">
          <mxGeometry relative="1" as="geometry" />
        </mxCell>
        <mxCell id="DiKaz3tjesYUGpwmwaU4-17" value="0010 1000" style="rounded=0;whiteSpace=wrap;html=1;fontSize=16;fillColor=#f8cecc;strokeColor=#b85450;" vertex="1" parent="1">
          <mxGeometry x="360" y="440" width="120" height="40" as="geometry" />
        </mxCell>
        <mxCell id="DiKaz3tjesYUGpwmwaU4-18" value="取反" style="text;html=1;strokeColor=none;fillColor=none;align=center;verticalAlign=middle;whiteSpace=wrap;rounded=0;fontSize=16;" vertex="1" parent="1">
          <mxGeometry x="300" y="410" width="110" height="20" as="geometry" />
        </mxCell>
        <mxCell id="DiKaz3tjesYUGpwmwaU4-28" style="edgeStyle=orthogonalEdgeStyle;rounded=0;orthogonalLoop=1;jettySize=auto;html=1;entryX=0.5;entryY=0;entryDx=0;entryDy=0;entryPerimeter=0;fontSize=16;fontColor=#000000;" edge="1" parent="1" source="DiKaz3tjesYUGpwmwaU4-20" target="DiKaz3tjesYUGpwmwaU4-26">
          <mxGeometry relative="1" as="geometry" />
        </mxCell>
        <mxCell id="DiKaz3tjesYUGpwmwaU4-20" value="0010 1001" style="rounded=0;whiteSpace=wrap;html=1;fontSize=16;fillColor=#f8cecc;strokeColor=#b85450;" vertex="1" parent="1">
          <mxGeometry x="360" y="520" width="120" height="40" as="geometry" />
        </mxCell>
        <mxCell id="DiKaz3tjesYUGpwmwaU4-21" value="加1操作" style="text;html=1;strokeColor=none;fillColor=none;align=center;verticalAlign=middle;whiteSpace=wrap;rounded=0;fontSize=16;" vertex="1" parent="1">
          <mxGeometry x="300" y="490" width="110" height="20" as="geometry" />
        </mxCell>
        <mxCell id="DiKaz3tjesYUGpwmwaU4-24" value="结果：-41" style="text;html=1;strokeColor=none;fillColor=none;align=center;verticalAlign=middle;whiteSpace=wrap;rounded=0;fontSize=16;" vertex="1" parent="1">
          <mxGeometry x="520" y="530" width="110" height="20" as="geometry" />
        </mxCell>
        <mxCell id="DiKaz3tjesYUGpwmwaU4-25" value="&lt;b&gt;Tips&lt;/b&gt;&lt;br&gt;&lt;div style=&quot;text-align: left&quot;&gt;&lt;span&gt;&amp;nbsp; 计算机它运算有个小技巧就是：减法用加法进行计算，然后取反可以得到原数&lt;/span&gt;&lt;/div&gt;如题：算完以后得到215，但是高位是负数，所以结果应该是：256-215=41" style="text;html=1;strokeColor=#9673a6;fillColor=#e1d5e7;align=center;verticalAlign=middle;whiteSpace=wrap;rounded=0;fontSize=16;" vertex="1" parent="1">
          <mxGeometry x="40" y="120" width="187" height="175" as="geometry" />
        </mxCell>
        <mxCell id="DiKaz3tjesYUGpwmwaU4-26" value="-41" style="text;html=1;align=center;verticalAlign=middle;resizable=0;points=[];autosize=1;fontSize=16;fillColor=#d5e8d4;strokeColor=#82b366;" vertex="1" parent="1">
          <mxGeometry x="400" y="600" width="40" height="20" as="geometry" />
        </mxCell>
      </root>
    </mxGraphModel>
  </diagram>
</mxfile>
